Coordinates
version=1
nRows=10
nColumns=40
inDegrees=yes

Units are S.I. units (second, meters, Newtons, ...)
Angles are in degrees.

endheader
time	pelvis_tilt	pelvis_list	pelvis_rotation	pelvis_tx	pelvis_ty	pelvis_tz	hip_flexion_r	hip_adduction_r	hip_rotation_r	knee_angle_r	knee_angle_r_beta	ankle_angle_r	subtalar_angle_r	mtp_angle_r	hip_flexion_l	hip_adduction_l	hip_rotation_l	knee_angle_l	knee_angle_l_beta	ankle_angle_l	subtalar_angle_l	mtp_angle_l	lumbar_extension	lumbar_bending	lumbar_rotation	arm_flex_r	arm_add_r	arm_rot_r	elbow_flex_r	pro_sup_r	wrist_flex_r	wrist_dev_r	arm_flex_l	arm_add_l	arm_rot_l	elbow_flex_l	pro_sup_l	wrist_flex_l	wrist_dev_l
     14.74000000	     -1.85526349	     -4.04678233	      4.63815261	      1.12265138	      0.91507762	      0.46031761	     24.25018140	     -1.04562671	    -14.91089054	     26.37366647	     26.37366647	      4.81982615	    -10.10467692	     -2.39066769	     -0.76707039	    -11.21524828	     -7.42231279	     39.50062064	     39.50062064	      8.29060028	    -13.98368143	    -16.16858701	     -8.30244654	      6.24562889	      0.97292042	    -14.97377064	    -10.76842525	    -13.06063002	     22.33540709	     47.20303482	      0.00000000	      0.00000000	     18.30469456	    -14.81854101	     -3.83179787	     89.41907205	     47.76937931	      0.00000000	      0.00000000
     14.75114286	     -1.82678299	     -4.05216392	      4.89826006	      1.12323042	      0.91659575	      0.46256258	     23.43091758	     -1.02508948	    -15.64412562	     26.27807573	     26.27807573	      5.65679147	     -9.08780076	     -2.43719153	      1.22152706	    -11.50442197	     -6.04160322	     43.43091274	     43.43091274	      6.20195239	    -16.14490207	    -14.36701919	     -8.35402404	      6.15314916	      0.94900394	    -13.16281941	    -11.05565973	    -12.71282086	     22.58571057	     47.17313973	      0.00000000	      0.00000000	     16.99310350	    -14.26600310	     -4.32492875	     88.03382012	     47.78352210	      0.00000000	      0.00000000
     14.76228571	     -1.75160612	     -4.31876293	      5.15537759	      1.12355211	      0.91806068	      0.46501136	     22.44869067	     -0.57839286	    -16.22199270	     25.82604078	     25.82604078	      6.19773997	     -8.58651710	     -2.48117088	      3.30958780	    -12.24862194	     -5.08633119	     47.36060982	     47.36060982	      4.35780173	    -17.20053881	    -13.13468533	     -8.50268872	      6.35319607	      1.33439500	    -11.55066524	    -11.31687645	    -12.59577522	     23.08423262	     47.15524607	      0.00000000	      0.00000000	     15.81686134	    -13.67487752	     -4.12829527	     87.07900874	     47.75079312	      0.00000000	      0.00000000
     14.77342857	     -1.86502863	     -4.32384668	      5.42461003	      1.12348586	      0.91942887	      0.46698587	     21.70546697	     -0.56504122	    -17.02993760	     25.51369288	     25.51369288	      6.95018459	     -7.35199127	     -2.15757012	      5.93737844	    -12.27648214	     -3.59325441	     51.71792405	     51.71792405	      5.51496677	    -17.20424301	     -4.31934793	     -8.38409314	      6.26050745	      1.45290284	     -9.63586606	    -11.66514967	    -11.87320292	     23.16543940	     47.09104831	      0.00000000	      0.00000000	     14.91651801	    -12.79277549	     -4.76727978	     84.27325672	     47.76263186	      0.00000000	      0.00000000
     14.78457143	     -1.85685699	     -4.59389862	      5.69520048	      1.12331691	      0.92073585	      0.46919606	     20.78580211	     -0.07985405	    -17.50713135	     24.94830557	     24.94830557	      7.32880072	     -6.99374924	     -2.13793406	      8.16998705	    -12.87208223	     -2.72040276	     55.08773562	     55.08773562	      4.19511178	    -17.89164567	     -3.31761242	     -8.49156321	      6.44591039	      1.72268430	     -7.81486201	    -12.02142395	    -11.81827717	     23.90449430	     47.06989927	      0.00000000	      0.00000000	     13.63444707	    -12.38418688	     -4.35882236	     83.06096463	     47.70966554	      0.00000000	      0.00000000
     14.79571429	     -1.96342691	     -4.65558567	      5.94953598	      1.12276721	      0.92206577	      0.47101898	     20.00962027	      0.08863684	    -18.12164016	     24.44860012	     24.44860012	      7.77803740	     -6.14369351	     -1.93605841	     10.77819691	    -12.86327538	     -1.50404488	     58.64803504	     58.64803504	      5.71631865	    -17.81908167	      4.47171976	     -8.39777238	      6.40436065	      2.11053600	     -5.98532145	    -12.47821533	    -11.28777590	     24.39907009	     47.00148874	      0.00000000	      0.00000000	     13.20228847	    -11.43948716	     -4.30666092	     79.25376465	     47.65571243	      0.00000000	      0.00000000
     14.80685714	     -2.00656803	     -4.91757657	      6.22658122	      1.12218810	      0.92326301	      0.47297488	     19.12170265	      0.59235358	    -18.52625273	     23.76320387	     23.76320387	      8.10080579	     -5.82119323	     -1.88688387	     13.04815695	    -13.31521739	     -0.75648081	     61.26141805	     61.26141805	      5.18052642	    -18.17488394	      5.02023718	     -8.46378732	      6.58699101	      2.21447623	     -3.93399795	    -12.80547806	    -11.26590090	     25.31399140	     46.97627844	      0.00000000	      0.00000000	     11.86604283	    -11.27638882	     -3.91393291	     77.59437857	     47.59346870	      0.00000000	      0.00000000
     14.81800000	     -2.00524000	     -4.96233245	      6.47692118	      1.12137088	      0.92471038	      0.47459565	     18.20409070	      0.83636716	    -18.89399374	     23.13318418	     23.13318418	      8.39943274	     -5.29751379	     -1.85859928	     15.28278103	    -13.35141275	     -0.02528947	     63.60769009	     63.60769009	      6.01917046	    -18.24536261	      8.45918922	     -8.51025188	      6.56034909	      2.54963357	     -1.79701760	    -13.21632950	    -10.93086076	     25.87490948	     46.92925841	      0.00000000	      0.00000000	     11.60480416	    -10.56100102	     -3.73662984	     73.13318030	     47.51044914	      0.00000000	      0.00000000
     14.82914286	     -2.06449750	     -5.11072028	      6.77197871	      1.12036796	      0.92602299	      0.47609478	     17.32655484	      1.21500757	    -19.24612158	     22.37841291	     22.37841291	      8.59098854	     -4.96151830	     -1.81922330	     17.55955818	    -13.48021103	      0.63457121	     65.45886639	     65.45886639	      6.68675332	    -18.34075729	     10.48413814	     -8.53334744	      6.63465494	      2.96730203	      0.25028750	    -13.68693043	    -10.70646672	     26.60904786	     46.87713344	      0.00000000	      0.00000000	     11.05575955	     -9.96698618	     -3.17197834	     69.63608830	     47.41522361	      0.00000000	      0.00000000
     14.84028571	     -2.07795700	     -5.18498504	      7.07435673	      1.11926763	      0.92740886	      0.47743492	     16.38735239	      1.52891177	    -19.55048397	     21.59507733	     21.59507733	      8.76370349	     -4.62950030	     -1.84249654	     19.65295104	    -13.51372833	      1.12837103	     66.73061226	     66.73061226	      7.14332057	    -18.46715495	     11.20123675	     -8.61357085	      6.62814899	      3.12732935	      2.55170440	    -14.10517950	    -10.53809356	     27.33755281	     46.83818433	      0.00000000	      0.00000000	     10.42687559	     -9.52620881	     -2.77119033	     66.05386189	     47.32692609	      0.00000000	      0.00000000
